<svg xmlns="http://www.w3.org/2000/svg" viewBox="0 0 473.06 78.1"><defs><style>.cls-1{fill:#1a1d1e;}</style></defs><g id="Layer_2" data-name="Layer 2"><g id="Layer_1-2" data-name="Layer 1"><path class="cls-1" d="M67.06,14V77h-14V69.1a24.32,24.32,0,0,1-9.19,6.75A30.58,30.58,0,0,1,32,78.1a33.62,33.62,0,0,1-16.52-4A28.63,28.63,0,0,1,4.09,62.71,34.44,34.44,0,0,1,0,45.66a34.08,34.08,0,0,1,4.09-17A28.68,28.68,0,0,1,15.45,17.36a33.62,33.62,0,0,1,16.52-4,29.32,29.32,0,0,1,11.31,2.13c3.43,1.42,8.78,6.28,8.78,6.28V14ZM47.13,60q5.32-5.46,5.33-14.33T47.13,31.33a18.09,18.09,0,0,0-13.5-5.45,17.89,17.89,0,0,0-13.44,5.45q-5.27,5.45-5.27,14.33T20.19,60a17.88,17.88,0,0,0,13.44,5.44A18.08,18.08,0,0,0,47.13,60Z"/><path class="cls-1" d="M147.06,14V77h-14V69.1a26.5,26.5,0,0,1-9.39,6.75,30.51,30.51,0,0,1-11.9,2.25,33.58,33.58,0,0,1-16.51-4A28.6,28.6,0,0,1,83.89,62.71,34.55,34.55,0,0,1,79.8,45.66a34.18,34.18,0,0,1,4.09-17A28.64,28.64,0,0,1,95.26,17.36a33.58,33.58,0,0,1,16.51-4,29.29,29.29,0,0,1,11.31,2.13c3.44,1.42,9,6.28,9,6.28V14ZM126.93,60q5.32-5.46,5.33-14.33t-5.33-14.33a19.37,19.37,0,0,0-26.94,0q-5.26,5.45-5.27,14.33T100,60a17.91,17.91,0,0,0,13.44,5.44A18.08,18.08,0,0,0,126.93,60Z"/><path class="cls-1" d="M216.78,20.25q7.28,7,7.28,20.65V77h-15V42.66q0-8.29-3.89-12.49c-2.59-2.8-4.73-4.2-9.52-4.2q-8.15,0-12.87,4.91T178.06,45V77h-15V14h14v8.14a23.25,23.25,0,0,1,9.32-6.6,25.86,25.86,0,0,1,11.06-2.25Q209.5,13.29,216.78,20.25Z"/><path class="cls-1" d="M276,71.85a34.41,34.41,0,0,1-8.89,4.28,29.69,29.69,0,0,1-8,1.05q-10.56,0-16.31-5.38t-5.77-15.7V0h15V14h20L272,26H252.06V55.75c0,3,.79,5.37,2.34,7a8.74,8.74,0,0,0,6.55,2.4,22.4,22.4,0,0,0,10.86-3.69Z"/><path class="cls-1" d="M334.67,58.69l7.82,9.11a25.87,25.87,0,0,1-10.66,7.7,42.74,42.74,0,0,1-33-1.54,29.84,29.84,0,0,1-12.26-11.54,32.64,32.64,0,0,1-4.32-16.76A33.1,33.1,0,0,1,286.42,29,29.88,29.88,0,0,1,298,17.48a33.59,33.59,0,0,1,16.75-4.15,34,34,0,0,1,16.16,3.85,28.91,28.91,0,0,1,11.55,11A32.2,32.2,0,0,1,346.75,45l-48.43,9.47a16.53,16.53,0,0,0,7.22,8.29,23.82,23.82,0,0,0,12,2.84A23.3,23.3,0,0,0,334.67,58.69ZM301.09,30.5q-5,5.32-5,14.33V45l35.76-6.87a16.8,16.8,0,0,0-6.22-9.35,18.11,18.11,0,0,0-11.3-3.56Q306.13,25.17,301.09,30.5Z"/><path class="cls-1" d="M400.06,13.29V27.13a70.41,70.41,0,0,0-7.06-.37q-8.92,0-13.93,5.19t-5,15V77h-15V14h15v9.24C378.34,16.61,389.3,13.29,400.06,13.29Z"/><path class="cls-1" d="M473.06,14V77h-14V69.1a20.91,20.91,0,0,1-8.85,6.75,30.58,30.58,0,0,1-11.9,2.25,33.62,33.62,0,0,1-16.52-4,28.63,28.63,0,0,1-11.36-11.37,34.44,34.44,0,0,1-4.09-17.05,34.08,34.08,0,0,1,4.09-17,28.68,28.68,0,0,1,11.36-11.31,33.62,33.62,0,0,1,16.52-4,29.32,29.32,0,0,1,11.31,2.13c3.43,1.42,8.44,6.28,8.44,6.28V14ZM453.47,60q5.32-5.46,5.33-14.33t-5.33-14.33A18.09,18.09,0,0,0,440,25.88a17.89,17.89,0,0,0-13.44,5.45q-5.26,5.45-5.27,14.33T426.53,60A17.88,17.88,0,0,0,440,65.43,18.08,18.08,0,0,0,453.47,60Z"/></g></g></svg>