<?xml version="1.0" encoding="UTF-8" standalone="no"?>
<!DOCTYPE svg PUBLIC "-//W3C//DTD SVG 1.1//EN" "http://www.w3.org/Graphics/SVG/1.1/DTD/svg11.dtd">
<svg width="100%" height="100%" viewBox="0 0 1973 326" version="1.1" xmlns="http://www.w3.org/2000/svg" xmlns:xlink="http://www.w3.org/1999/xlink" xml:space="preserve" xmlns:serif="http://www.serif.com/" style="fill-rule:evenodd;clip-rule:evenodd;stroke-linejoin:round;stroke-miterlimit:2;">
    <g transform="matrix(4.16667,0,0,4.16667,196.363,130.754)">
        <path d="M0,28.539C3.551,24.906 5.329,20.131 5.329,14.209C5.329,8.288 3.551,3.513 0,-0.115C-3.551,-3.748 -8.051,-5.565 -13.501,-5.565C-18.945,-5.565 -23.426,-3.748 -26.939,-0.115C-30.451,3.513 -32.21,8.288 -32.21,14.209C-32.21,20.131 -30.451,24.906 -26.939,28.539C-23.426,32.172 -18.945,33.983 -13.501,33.983C-8.051,33.983 -3.551,32.172 0,28.539M19.895,-17.408L19.895,45.827L5.801,45.827L5.801,37.655C3.354,40.657 0.337,42.907 -3.257,44.405C-6.847,45.904 -10.817,46.655 -15.158,46.655C-21.316,46.655 -26.818,45.316 -31.675,42.627C-36.532,39.948 -40.319,36.157 -43.042,31.261C-45.764,26.366 -47.127,20.685 -47.127,14.209C-47.127,7.739 -45.764,2.072 -43.042,-2.78C-40.319,-7.636 -36.532,-11.404 -31.675,-14.088C-26.818,-16.772 -21.316,-18.116 -15.158,-18.116C-11.053,-18.116 -7.28,-17.408 -3.85,-15.986C-0.415,-14.565 2.563,-12.469 5.093,-9.709L5.093,-17.408L19.895,-17.408Z" style="fill:white;fill-rule:nonzero;"/>
    </g>
    <g transform="matrix(4.16667,0,0,4.16667,528.882,130.754)">
        <path d="M0,28.539C3.551,24.906 5.329,20.131 5.329,14.209C5.329,8.288 3.551,3.513 0,-0.115C-3.551,-3.748 -8.051,-5.565 -13.5,-5.565C-18.945,-5.565 -23.426,-3.748 -26.938,-0.115C-30.451,3.513 -32.21,8.288 -32.21,14.209C-32.21,20.131 -30.451,24.906 -26.938,28.539C-23.426,32.172 -18.945,33.983 -13.5,33.983C-8.051,33.983 -3.551,32.172 0,28.539M19.895,-17.408L19.895,45.827L5.801,45.827L5.801,37.655C3.354,40.657 0.337,42.907 -3.257,44.405C-6.847,45.904 -10.817,46.655 -15.158,46.655C-21.316,46.655 -26.818,45.316 -31.675,42.627C-36.532,39.948 -40.319,36.157 -43.041,31.261C-45.764,26.366 -47.127,20.685 -47.127,14.209C-47.127,7.739 -45.764,2.072 -43.041,-2.78C-40.319,-7.636 -36.532,-11.404 -31.675,-14.088C-26.818,-16.772 -21.316,-18.116 -15.158,-18.116C-11.053,-18.116 -7.28,-17.408 -3.85,-15.986C-0.414,-14.565 2.563,-12.469 5.093,-9.709L5.093,-17.408L19.895,-17.408Z" style="fill:white;fill-rule:nonzero;"/>
    </g>
    <g transform="matrix(4.16667,0,0,4.16667,901.756,292.591)">
        <path d="M0,-49.971C4.813,-45.311 7.223,-38.407 7.223,-29.247L7.223,6.986L-7.579,6.986L-7.579,-27.354C-7.579,-32.881 -8.88,-37.043 -11.487,-39.847C-14.088,-42.647 -16.229,-44.049 -21.042,-44.049C-26.487,-44.049 -30.794,-42.411 -33.95,-39.135C-37.106,-35.858 -38.687,-31.141 -38.687,-24.988L-38.687,6.986L-53.488,6.986L-53.488,-56.249L-39.395,-56.249L-39.395,-48.077C-36.952,-50.997 -33.873,-53.209 -30.158,-54.707C-26.448,-56.205 -23.841,-56.957 -19.182,-56.957C-11.212,-56.957 -4.813,-54.63 0,-49.971" style="fill:white;fill-rule:nonzero;"/>
    </g>
    <g transform="matrix(4.16667,0,0,4.16667,1149.37,22.4583)">
        <path d="M0,67.256C-1.739,68.677 -6.28,70.868 -8.766,71.582C-11.252,72.29 -13.878,72.646 -16.639,72.646C-23.587,72.646 -28.954,70.83 -32.741,67.202C-36.533,63.568 -38.427,58.278 -38.427,51.33L-38.427,-5.39L-23.625,-5.39L-23.625,9.06L-4.061,9.06L-4.112,20.899L-23.625,20.899L-23.625,50.979C-23.625,54.058 -22.854,56.404 -21.317,58.023C-19.775,59.642 -17.627,60.451 -14.861,60.451C-11.546,60.451 -6.354,58.458 -4.144,56.718L0,67.256Z" style="fill:white;fill-rule:nonzero;"/>
    </g>
    <g transform="matrix(4.16667,0,0,4.16667,1256.57,253.621)">
        <path d="M0,-30.437C-3.358,-26.881 -5.03,-22.106 -5.03,-16.107L-5.03,-15.987L30.731,-22.858C29.7,-26.722 27.628,-29.844 24.511,-32.21C21.394,-34.581 17.625,-35.761 13.202,-35.761C7.758,-35.761 3.354,-33.988 0,-30.437M33.097,-2.25L40.912,6.866C38.146,10.263 34.595,12.826 30.254,14.561C25.913,16.3 21.018,17.167 15.573,17.167C8.625,17.167 2.506,15.789 -2.78,13.023C-8.07,10.263 -12.156,6.413 -15.037,1.479C-17.919,-3.455 -19.359,-9.039 -19.359,-15.279C-19.359,-21.437 -17.957,-26.982 -15.158,-31.916C-12.354,-36.845 -8.484,-40.695 -3.551,-43.461C1.383,-46.222 6.968,-47.604 13.202,-47.604C19.124,-47.604 24.511,-46.323 29.367,-43.754C34.225,-41.191 38.069,-37.52 40.912,-32.745C43.755,-27.965 45.176,-22.381 45.176,-15.987L-3.257,-6.515C-1.759,-2.881 0.65,-0.121 3.966,1.773C7.28,3.667 11.271,4.616 15.93,4.616C22.795,4.616 28.52,2.327 33.097,-2.25" style="fill:white;fill-rule:nonzero;"/>
    </g>
    <g transform="matrix(4.16667,0,0,4.16667,1664.78,321.698)">
        <path d="M0,-63.943L0,-49.85C-1.263,-50.09 -5.832,-50.206 -6.854,-50.206C-12.621,-50.206 -17.121,-48.529 -20.354,-45.176C-23.592,-41.818 -25.211,-36.985 -25.211,-30.668L-25.211,0L-40.013,0L-40.013,-63.235L-25.919,-63.235L-25.919,-53.998C-21.655,-60.628 -10.735,-63.943 0,-63.943" style="fill:white;fill-rule:nonzero;"/>
    </g>
    <g transform="matrix(4.16667,0,0,4.16667,1889.45,130.754)">
        <path d="M0,28.539C3.551,24.906 5.329,20.131 5.329,14.209C5.329,8.288 3.551,3.513 0,-0.115C-3.551,-3.748 -8.051,-5.565 -13.501,-5.565C-18.945,-5.565 -23.426,-3.748 -26.938,-0.115C-30.451,3.513 -32.21,8.288 -32.21,14.209C-32.21,20.131 -30.451,24.906 -26.938,28.539C-23.426,32.172 -18.945,33.983 -13.501,33.983C-8.051,33.983 -3.551,32.172 0,28.539M19.895,-17.408L19.895,45.827L5.801,45.827L5.801,37.655C3.354,40.657 0.337,42.907 -3.257,44.405C-6.847,45.904 -10.816,46.655 -15.158,46.655C-21.315,46.655 -26.818,45.316 -31.675,42.627C-36.532,39.948 -40.319,36.157 -43.041,31.261C-45.764,26.366 -47.127,20.685 -47.127,14.209C-47.127,7.739 -45.764,2.072 -43.041,-2.78C-40.319,-7.636 -36.532,-11.404 -31.675,-14.088C-26.818,-16.772 -21.315,-18.116 -15.158,-18.116C-11.053,-18.116 -7.28,-17.408 -3.85,-15.986C-0.414,-14.565 2.563,-12.469 5.093,-9.709L5.093,-17.408L19.895,-17.408Z" style="fill:white;fill-rule:nonzero;"/>
    </g>
</svg>
